<svg xmlns="http://www.w3.org/2000/svg" width="340" height="260" viewBox="0 0 340 260">
  <defs>
    <g id="leaf" fill="none" stroke="#CFE1CF" stroke-width="1.05" opacity=".55">
      <path d="M0 12 C 6 -2, 22 -2, 28 12 C 22 26, 6 26, 0 12 Z"/>
      <path d="M14 12 v-8 M14 12 v8 M14 12 h8 M14 12 h-8" stroke-linecap="round"/>
    </g>
  </defs>
  <rect width="100%" height="100%" fill="none"/>
  <g transform="translate(20,20)">
    <!-- staggered rows -->
    <g transform="translate(0,0)"><use href="#leaf"/></g><g transform="translate(60,0)"><use href="#leaf"/></g>
    <g transform="translate(120,0)"><use href="#leaf"/></g><g transform="translate(180,0)"><use href="#leaf"/></g>
    <g transform="translate(240,0)"><use href="#leaf"/></g><g transform="translate(300,0)"><use href="#leaf"/></g>
    <g transform="translate(30,60)"><use href="#leaf"/></g><g transform="translate(90,60)"><use href="#leaf"/></g>
    <g transform="translate(150,60)"><use href="#leaf"/></g><g transform="translate(210,60)"><use href="#leaf"/></g>
    <g transform="translate(270,60)"><use href="#leaf"/></g>
    <g transform="translate(0,120)"><use href="#leaf"/></g><g transform="translate(60,120)"><use href="#leaf"/></g>
    <g transform="translate(120,120)"><use href="#leaf"/></g><g transform="translate(180,120)"><use href="#leaf"/></g>
    <g transform="translate(240,120)"><use href="#leaf"/></g><g transform="translate(300,120)"><use href="#leaf"/></g>
    <g transform="translate(30,180)"><use href="#leaf"/></g><g transform="translate(90,180)"><use href="#leaf"/></g>
    <g transform="translate(150,180)"><use href="#leaf"/></g><g transform="translate(210,180)"><use href="#leaf"/></g>
    <g transform="translate(270,180)"><use href="#leaf"/></g>
  </g>
</svg>
